# xmcd
#
# Track frame offsets:
#	150
#	12850
#	25082
#	37800
#	50252
#	62862
#	75217
#	86937
#	99760
#	112360
#	125397
#	138482
#	150827
#	163060
#	175970
#	188375
#	200935
#	213200
#	225655
#	238452
#	251337
#	263820
#
# Disc length: 3674 seconds
#
# Revision: 0
# Processed by: cddbd v1.5.2PL0 Copyright (c) Steve Scherf et al.
# Submitted via: EZCDAudioConverter 2.2.2.1
#
DISCID=1e0e5816
DTITLE=Hank Williams - Honky tonkin'
DYEAR=1999
DGENRE=country
TTITLE0=Honky tonkin'
TTITLE1=Never again
TTITLE2=I don't care
TTITLE3=I saw the light
TTITLE4=Six more miles
TTITLE5=My sweet love ain't around
TTITLE6=A mansion on the hill
TTITLE7=When God comes and gathers his jewels
TTITLE8=Wealth won't save your soul
TTITLE9=On the banks of the old Pontchartrain
TTITLE10=Calling you
TTITLE11=(Last night) I heard you crying in your sleep
TTITLE12=My love for you
TTITLE13=I can't get you of my mind
TTITLE14=Fly trouble
TTITLE15=Rootie tootie
TTITLE16=The blues come around
TTITLE17=Move it on over
TTITLE18=Pan American
TTITLE19=I'm a long gone daddy
TTITLE20=Honky tonkin' 1948
TTITLE21=I'll be a bachelor till I die
EXTD=
EXTT0=
EXTT1=
EXTT2=
EXTT3=
EXTT4=
EXTT5=
EXTT6=
EXTT7=
EXTT8=
EXTT9=
EXTT10=
EXTT11=
EXTT12=
EXTT13=
EXTT14=
EXTT15=
EXTT16=
EXTT17=
EXTT18=
EXTT19=
EXTT20=
EXTT21=
PLAYORDER=
